HIERARCHY
ROOT Hips
{
	OFFSET 0.000000 0.000000 0.000000
	CHANNELS 6 Xposition Yposition Zposition Zrotation Yrotation Xrotation 
	JOINT LHipJoint
	{
		OFFSET 0.000000 0.000000 0.000000
		CHANNELS 3 Zrotation Yrotation Xrotation
		JOINT LeftUpLeg
		{
			OFFSET 1.363060 -1.794630 0.839290
			CHANNELS 3 Zrotation Yrotation Xrotation
			JOINT LeftLeg
			{
				OFFSET 2.448110 -6.726130 0.000000
				CHANNELS 3 Zrotation Yrotation Xrotation
				JOINT LeftFoot
				{
					OFFSET 2.562200 -7.039590 0.000000
					CHANNELS 3 Zrotation Yrotation Xrotation
					JOINT LeftToeBase
					{
						OFFSET 0.157640 -0.433110 2.322550
						CHANNELS 3 Zrotation Yrotation Xrotation
						End Site
						{
							OFFSET 0.000000 0.000000 0.000000
						}
					}
				}
			}
		}
	}
	JOINT RHipJoint
	{
		OFFSET 0.000000 0.000000 0.000000
		CHANNELS 3 Zrotation Yrotation Xrotation
		JOINT RightUpLeg
		{
			OFFSET -1.305520 -1.794630 0.839290
			CHANNELS 3 Zrotation Yrotation Xrotation
			JOINT RightLeg
			{
				OFFSET -2.542530 -6.985550 0.000000
				CHANNELS 3 Zrotation Yrotation Xrotation
				JOINT RightFoot
				{
					OFFSET -2.568260 -7.056230 0.000000
					CHANNELS 3 Zrotation Yrotation Xrotation
					JOINT RightToeBase
					{
						OFFSET -0.164730 -0.452590 2.363150
						CHANNELS 3 Zrotation Yrotation Xrotation
						End Site
						{
							OFFSET 0.000000 0.000000 0.000000
						}
					}
				}
			}
		}
	}
	JOINT LowerBack
	{
		OFFSET 0.000000 0.000000 0.000000
		CHANNELS 3 Zrotation Yrotation Xrotation
		JOINT Spine
		{
			OFFSET 0.028270 2.035590 -0.193380
			CHANNELS 3 Zrotation Yrotation Xrotation
			JOINT Spine1
			{
				OFFSET 0.056720 2.048850 -0.042750
				CHANNELS 3 Zrotation Yrotation Xrotation
				JOINT Neck
				{
					OFFSET 0.000000 0.000000 0.000000
					CHANNELS 3 Zrotation Yrotation Xrotation
					JOINT Neck1
					{
						OFFSET -0.054170 1.746240 0.172020
						CHANNELS 3 Zrotation Yrotation Xrotation
						JOINT Head
						{
							OFFSET 0.104070 1.761360 -0.123970
							CHANNELS 3 Zrotation Yrotation Xrotation
							End Site
							{
								OFFSET 0.000000 0.000000 0.000000
							}
						}
					}
				}
				JOINT LeftShoulder
				{
					OFFSET 0.000000 0.000000 0.000000
					CHANNELS 3 Zrotation Yrotation Xrotation
					JOINT LeftArm
					{
						OFFSET 3.362410 1.200890 -0.311210
						CHANNELS 3 Zrotation Yrotation Xrotation
						JOINT LeftForeArm
						{
							OFFSET 4.983000 -0.000000 -0.000000
							CHANNELS 3 Zrotation Yrotation Xrotation
							JOINT LeftHand
							{
								OFFSET 3.483560 -0.000000 -0.000000
								CHANNELS 3 Zrotation Yrotation Xrotation
								JOINT LeftFingerBase
								{
									OFFSET 0.000000 0.000000 0.000000
									CHANNELS 3 Zrotation Yrotation Xrotation
									JOINT LeftHandIndex1
									{
										OFFSET 0.715260 -0.000000 -0.000000
										CHANNELS 3 Zrotation Yrotation Xrotation
										End Site
										{
											OFFSET 0.000000 0.000000 0.000000
										}
									}
								}
								JOINT LThumb
								{
									OFFSET 0.000000 0.000000 0.000000
									CHANNELS 3 Zrotation Yrotation Xrotation
									End Site
									{
										OFFSET 0.000000 0.000000 0.000000
									}
								}
							}
						}
					}
				}
				JOINT RightShoulder
				{
					OFFSET 0.000000 0.000000 0.000000
					CHANNELS 3 Zrotation Yrotation Xrotation
					JOINT RightArm
					{
						OFFSET -3.136600 1.374050 -0.404650
						CHANNELS 3 Zrotation Yrotation Xrotation
						JOINT RightForeArm
						{
							OFFSET -5.241900 -0.000000 -0.000000
							CHANNELS 3 Zrotation Yrotation Xrotation
							JOINT RightHand
							{
								OFFSET -3.444170 -0.000000 -0.000000
								CHANNELS 3 Zrotation Yrotation Xrotation
								JOINT RightFingerBase
								{
									OFFSET 0.000000 0.000000 0.000000
									CHANNELS 3 Zrotation Yrotation Xrotation
									JOINT RightHandIndex1
									{
										OFFSET -0.622530 -0.000000 -0.000000
										CHANNELS 3 Zrotation Yrotation Xrotation
										End Site
										{
											OFFSET 0.000000 0.000000 0.000000
										}
									}
								}
								JOINT RThumb
								{
									OFFSET 0.000000 0.000000 0.000000
									CHANNELS 3 Zrotation Yrotation Xrotation
									End Site
									{
										OFFSET 0.000000 0.000000 0.000000
									}
								}
							}
						}
					}
				}
			}
		}
	}
}
MOTION
Frames: 7
Frame Time: 0.008333
-0.742589 18.384284 9.140127 -7.592963 -0.699138 13.353353 5.908525 4.453121 -1.869036 -16.056500 -31.807394 11.902075 -3.369954 -1.215137 -0.569028 -11.733514 37.568507 -16.852698 0.007700 0.567300 1.558900 -2.294804 -4.482457 -0.781335 25.441963 26.039407 4.702879 3.519619 -0.456465 3.127745 7.113283 -23.172129 -3.760552 -0.012300 -0.716400 1.968800 0.991985 1.050948 10.026487 7.141937 3.499162 -29.218509 -7.929843 -0.544846 -7.823719 -25.198689 -16.173856 0.281586 27.162984 -27.409583 19.715710 4.898800 -12.219000 7.245300 -7.710467 -7.491422 1.908377 -85.744056 0.085074 -0.968249 18.075769 -20.707154 -4.504695 -0.773566 1.336067 10.923465 22.512422 -11.197147 -5.328900 -7.125000 0.000000 0.000000 -2.572400 16.537100 1.735600 14.918235 7.669527 1.722920 79.399115 -10.927118 -1.161816 -14.082983 18.575019 -2.872228 0.932211 1.515806 41.241875 7.385712 -31.264113 -4.204500 7.125000 0.000000 0.000000 43.612000 -57.362800 -15.112500 
-0.734926 18.386909 9.132149 -7.548772 -0.654930 13.160357 6.052850 4.467346 -1.782373 -16.324090 -31.757508 11.935932 -3.382269 -1.233622 -0.462111 -11.685872 37.438647 -17.027280 0.013400 0.746800 2.052500 -2.105892 -4.360087 -0.591046 24.592002 24.274042 2.939966 3.409998 -0.930921 4.362344 6.495111 -21.341483 -2.833631 -0.005100 -0.459800 1.263300 0.094917 0.745109 9.534295 9.246155 3.449888 -27.366571 -8.228009 -0.854018 -8.334987 -25.213279 -16.123698 -1.295742 26.899698 -27.025954 20.335287 4.765200 -11.942000 7.389000 -8.173165 -7.379833 1.786838 -85.995061 -0.129212 -3.238977 17.688986 -20.294414 -4.321123 -0.678746 1.401733 12.285660 21.987114 -11.589953 -5.370900 -7.125000 0.000000 0.000000 -2.994400 16.105700 2.049000 14.768908 7.633973 1.682155 78.833892 -10.150079 0.692168 -14.181646 18.740067 -2.907239 0.918963 1.504468 40.738638 6.805039 -31.092468 -3.857900 7.125000 0.000000 0.000000 42.887500 -57.351600 -14.780200 
-0.726948 18.393102 9.123226 -7.620734 -0.643619 13.090376 6.255652 4.481154 -1.808421 -16.611064 -31.840880 12.117441 -3.399802 -1.263783 -0.442259 -11.685714 37.457920 -17.318028 0.020700 0.928600 2.552300 -1.882536 -4.392349 -0.519423 24.501431 24.783941 3.181864 3.422264 -0.922183 4.274314 6.649551 -21.776138 -3.100541 -0.008300 -0.587400 1.614300 -0.752396 0.719760 9.590235 11.443403 3.821127 -27.055536 -8.762998 -1.016764 -8.554583 -25.883726 -15.906352 -1.481494 26.799864 -26.711699 20.466725 4.842100 -11.796500 7.444600 -8.436818 -7.309219 1.733287 -86.548671 0.250405 -4.944878 17.249075 -19.792042 -4.118785 -0.582331 1.454654 13.687528 21.408738 -11.782201 -5.306000 -7.125000 0.000000 0.000000 -3.440500 15.907300 2.370100 14.424795 7.677764 1.738512 78.493651 -9.996444 2.287695 -14.349424 18.991209 -2.976446 0.897555 1.512317 39.807907 6.500832 -31.084781 -3.686400 7.125000 0.000000 0.000000 42.593900 -57.410800 -14.715600 
-0.721909 18.395412 9.118083 -7.868431 -0.526486 13.079454 6.520035 4.515340 -1.843068 -16.755311 -32.077425 12.330975 -3.416117 -1.304633 -0.472440 -11.737051 37.584403 -17.552685 0.024200 1.004000 2.759800 -1.593472 -4.490153 -0.448036 24.812601 26.164414 4.218402 3.485334 -0.695270 3.600207 7.117128 -23.134169 -3.850653 -0.016900 -0.838900 2.305700 -1.762106 0.693759 9.563177 14.239946 4.296631 -26.777550 -9.419407 -1.228242 -8.742848 -26.455641 -15.741296 -1.782867 26.301369 -26.404340 20.753724 4.831300 -11.660200 7.535600 -8.742366 -7.234379 1.677997 -87.087175 0.733094 -6.784525 16.709956 -19.174938 -3.876549 -0.460680 1.499994 15.356936 20.611950 -11.890553 -5.141800 -7.125000 0.000000 0.000000 -4.043400 15.824200 2.794700 13.921593 7.756519 1.817045 78.174273 -9.857730 3.902553 -14.504057 19.237309 -3.047551 0.873694 1.530921 38.824090 6.472744 -31.133862 -3.676600 7.125000 0.000000 0.000000 42.621700 -57.457100 -14.777600 
-0.716346 18.396042 9.127216 -8.122726 -0.493021 13.135625 6.793145 4.555124 -1.871606 -17.083769 -32.615531 12.840828 -3.448449 -1.405398 -0.636491 -11.924236 38.071931 -18.187843 0.024300 1.005900 2.765000 -1.296652 -4.552453 -0.362572 24.917217 26.987275 4.779454 3.523894 -0.518518 3.047667 7.402319 -23.995186 -4.097394 -0.021200 -0.939600 2.582600 -2.840311 0.675908 9.207487 17.116067 4.784223 -26.345208 -10.047015 -1.433856 -8.770281 -26.882022 -15.634376 -2.188892 25.548478 -26.083715 21.094593 4.746100 -11.519200 7.636900 -9.065198 -7.195611 1.623173 -87.548298 1.098939 -9.107787 16.001323 -18.345922 -3.565255 -0.296850 1.543953 17.625533 19.545626 -11.893904 -4.864000 -7.125000 0.000000 0.000000 -4.842300 15.870100 3.345700 13.382073 7.861856 1.888925 77.784518 -9.693833 5.630348 -14.619227 19.433952 -3.105135 0.845804 1.546863 37.729566 6.454266 -31.002326 -3.652700 7.125000 0.000000 0.000000 42.473200 -57.362100 -14.610500 
-0.707948 18.396042 9.147161 -8.546688 -0.480655 13.246263 7.239939 4.602440 -1.895917 -17.653355 -33.592751 13.755354 -3.508184 -1.596581 -0.927590 -12.210220 38.840945 -19.533412 0.035900 1.222200 3.360300 -0.805936 -4.561227 -0.177521 24.632913 26.952039 4.493334 3.525973 -0.454658 2.738121 7.399090 -24.071399 -3.611578 -0.019700 -0.906400 2.491300 -4.659317 0.564566 8.351980 22.002181 5.419649 -25.189764 -10.987486 -1.853814 -8.869654 -27.910508 -15.372746 -2.770243 24.729525 -25.397261 21.235054 4.765700 -11.228200 7.771000 -9.513548 -7.208630 1.491621 -88.401549 1.281377 -12.387755 15.267003 -17.478016 -3.236176 -0.112194 1.511354 20.408184 18.058997 -11.217462 -4.229000 -7.125000 0.000000 0.000000 -5.932600 16.727200 3.995700 12.423526 8.052466 1.971283 76.996525 -9.442155 8.184013 -14.693882 19.620255 -3.155375 0.820023 1.543768 36.489540 6.223156 -30.740378 -3.490400 7.125000 0.000000 0.000000 41.976500 -57.208000 -14.231200 
-0.699550 18.389638 9.153354 -8.548277 -0.620740 13.635243 7.174849 4.551746 -2.011944 -18.021776 -34.640897 14.444534 -3.543281 -1.697174 -1.221466 -12.466607 39.602426 -20.842662 0.054800 1.510500 4.154600 -0.875757 -4.518144 -0.320066 24.472391 26.719961 4.022940 3.518583 -0.464931 2.696071 7.278963 -23.788087 -3.195090 -0.020100 -0.914700 2.514100 -4.322570 0.755829 8.664477 21.165991 5.719754 -26.715103 -10.882062 -1.717284 -8.499728 -27.615418 -15.335242 -2.280235 24.554070 -25.455213 21.283063 4.747200 -11.269500 7.770400 -9.427357 -7.199329 1.640970 -88.078798 1.998543 -13.983551 14.406304 -16.432174 -2.851513 -0.001106 1.397501 23.026493 16.502526 -9.796967 -3.382000 -7.125000 0.000000 0.000000 -7.064500 18.427500 4.503500 12.432215 8.054293 2.058923 77.361181 -9.907117 8.712484 -15.030227 20.034276 -3.287629 0.782407 1.559072 35.555482 6.088626 -30.489177 -3.399300 7.125000 0.000000 0.000000 41.613700 -57.037500 -13.896500 
